<?xml version="1.0" encoding="UTF-8"?>
<svg width="24px" height="24px" viewBox="0 0 24 24" version="1.1" xmlns="http://www.w3.org/2000/svg" xmlns:xlink="http://www.w3.org/1999/xlink">
    <!-- Generator: Sketch 43.2 (39069) - http://www.bohemiancoding.com/sketch -->
    <title>dribbble</title>
    <desc>Created with Sketch.</desc>
    <defs></defs>
    <g id="Page-1" stroke="none" stroke-width="1" fill="none" fill-rule="evenodd">
        <g id="V1" transform="translate(-688.000000, -538.000000)" fill-rule="nonzero" fill="#FFFFFF">
            <g id="Header">
                <g id="Input-Form" transform="translate(654.000000, 526.000000)">
                    <g id="Button">
                        <g id="dribbble" transform="translate(34.000000, 12.000000)">
                            <path d="M12,24.002 C5.383,24.002 0,18.619 0,12.002 C0,5.385 5.383,0.002 12,0.002 C18.617,0.002 24,5.385 24,12.002 C24,18.619 18.617,24.002 12,24.002 Z M12,1.002 C5.935,1.002 1,5.937 1,12.002 C1,18.067 5.935,23.002 12,23.002 C18.065,23.002 23,18.067 23,12.002 C23,5.937 18.065,1.002 12,1.002 Z" id="Shape"></path>
                            <path d="M17,22.502 C16.738,22.502 16.518,22.298 16.501,22.033 C16.044,14.72 12.563,7.146 7.189,1.772 C6.994,1.577 6.994,1.26 7.189,1.065 C7.384,0.87 7.701,0.87 7.896,1.065 C13.437,6.606 17.027,14.421 17.499,21.97 C17.516,22.246 17.307,22.483 17.031,22.5 C17.021,22.501 17.01,22.502 17,22.502 Z" id="Shape"></path>
                            <path d="M1,11.064 C0.724,11.064 0.5,10.84 0.5,10.564 C0.5,10.288 0.724,10.064 1,10.064 C7.742,10.064 16.437,8.968 19.571,3.744 C19.713,3.508 20.02,3.431 20.257,3.573 C20.494,3.715 20.57,4.022 20.428,4.259 C17.054,9.883 8,11.064 1,11.064 Z" id="Shape"></path>
                            <path d="M4.687,21.044 C4.603,21.044 4.518,21.023 4.439,20.978 C4.199,20.841 4.116,20.536 4.253,20.296 C8.48,12.899 17.183,10.536 23.158,12.528 C23.42,12.615 23.561,12.898 23.474,13.16 C23.387,13.422 23.105,13.563 22.842,13.476 C17.253,11.614 9.095,13.84 5.122,20.792 C5.029,20.953 4.861,21.044 4.687,21.044 Z" id="Shape"></path>
                        </g>
                    </g>
                </g>
            </g>
        </g>
    </g>
</svg>